<mxfile host="app.diagrams.net" modified="2021-06-29T16:09:32.876Z" agent="5.0 (Macintosh; Intel Mac OS X 10_15_7) AppleWebKit/537.36 (KHTML, like Gecko) Chrome/91.0.4472.77 Safari/537.36" etag="NJV7GeeL3HCctC9zc2tY" version="14.7.0" type="github">
  <diagram id="ulhes5VO6swSHg_1E0Kg" name="Page-1">
    <mxGraphModel dx="946" dy="621" grid="1" gridSize="10" guides="1" tooltips="1" connect="1" arrows="1" fold="1" page="1" pageScale="1" pageWidth="827" pageHeight="1169" math="0" shadow="0">
      <root>
        <mxCell id="0" />
        <mxCell id="1" parent="0" />
        <mxCell id="rsJA24dU0JN4cxkRjO0J-6" value="xa end" style="edgeStyle=orthogonalEdgeStyle;rounded=0;orthogonalLoop=1;jettySize=auto;html=1;entryX=0;entryY=0.5;entryDx=0;entryDy=0;" edge="1" parent="1" source="rsJA24dU0JN4cxkRjO0J-1" target="rsJA24dU0JN4cxkRjO0J-5">
          <mxGeometry relative="1" as="geometry" />
        </mxCell>
        <mxCell id="rsJA24dU0JN4cxkRjO0J-1" value="ACTIVE" style="ellipse;whiteSpace=wrap;html=1;" vertex="1" parent="1">
          <mxGeometry x="190" y="270" width="120" height="80" as="geometry" />
        </mxCell>
        <mxCell id="rsJA24dU0JN4cxkRjO0J-2" value="xa start" style="endArrow=classic;html=1;entryX=0.083;entryY=0.2;entryDx=0;entryDy=0;entryPerimeter=0;" edge="1" parent="1" target="rsJA24dU0JN4cxkRjO0J-1">
          <mxGeometry width="50" height="50" relative="1" as="geometry">
            <mxPoint x="90" y="250" as="sourcePoint" />
            <mxPoint x="440" y="300" as="targetPoint" />
          </mxGeometry>
        </mxCell>
        <mxCell id="rsJA24dU0JN4cxkRjO0J-10" style="edgeStyle=orthogonalEdgeStyle;rounded=0;orthogonalLoop=1;jettySize=auto;html=1;entryX=0.992;entryY=0.688;entryDx=0;entryDy=0;entryPerimeter=0;" edge="1" parent="1" source="rsJA24dU0JN4cxkRjO0J-3" target="rsJA24dU0JN4cxkRjO0J-8">
          <mxGeometry relative="1" as="geometry">
            <mxPoint x="670" y="540" as="targetPoint" />
            <Array as="points">
              <mxPoint x="680" y="475" />
            </Array>
          </mxGeometry>
        </mxCell>
        <mxCell id="rsJA24dU0JN4cxkRjO0J-12" value="xa commit&amp;nbsp; or&amp;nbsp;&lt;br&gt;xa rollback" style="edgeLabel;html=1;align=center;verticalAlign=middle;resizable=0;points=[];" vertex="1" connectable="0" parent="rsJA24dU0JN4cxkRjO0J-10">
          <mxGeometry x="0.3393" y="-4" relative="1" as="geometry">
            <mxPoint as="offset" />
          </mxGeometry>
        </mxCell>
        <mxCell id="rsJA24dU0JN4cxkRjO0J-3" value="&lt;span style=&quot;font-size: 13.5432px ; text-align: left ; background-color: rgb(255 , 255 , 255)&quot;&gt;PREPARED&lt;/span&gt;" style="ellipse;whiteSpace=wrap;html=1;" vertex="1" parent="1">
          <mxGeometry x="610" y="270" width="120" height="80" as="geometry" />
        </mxCell>
        <mxCell id="rsJA24dU0JN4cxkRjO0J-7" value="xa prepare" style="edgeStyle=orthogonalEdgeStyle;rounded=0;orthogonalLoop=1;jettySize=auto;html=1;entryX=0;entryY=0.5;entryDx=0;entryDy=0;" edge="1" parent="1" source="rsJA24dU0JN4cxkRjO0J-5" target="rsJA24dU0JN4cxkRjO0J-3">
          <mxGeometry relative="1" as="geometry" />
        </mxCell>
        <mxCell id="rsJA24dU0JN4cxkRjO0J-9" value="xa commit ... one phase" style="edgeStyle=orthogonalEdgeStyle;rounded=0;orthogonalLoop=1;jettySize=auto;html=1;" edge="1" parent="1" source="rsJA24dU0JN4cxkRjO0J-5" target="rsJA24dU0JN4cxkRjO0J-8">
          <mxGeometry relative="1" as="geometry">
            <Array as="points">
              <mxPoint x="450" y="390" />
              <mxPoint x="450" y="390" />
            </Array>
          </mxGeometry>
        </mxCell>
        <mxCell id="rsJA24dU0JN4cxkRjO0J-5" value="IDLE" style="ellipse;whiteSpace=wrap;html=1;" vertex="1" parent="1">
          <mxGeometry x="390" y="270" width="120" height="80" as="geometry" />
        </mxCell>
        <mxCell id="rsJA24dU0JN4cxkRjO0J-8" value="TERMINATED" style="ellipse;whiteSpace=wrap;html=1;dashed=1;" vertex="1" parent="1">
          <mxGeometry x="390" y="420" width="120" height="80" as="geometry" />
        </mxCell>
      </root>
    </mxGraphModel>
  </diagram>
</mxfile>
